<svg width="16" height="16" viewBox="0 0 16 16" fill="none" xmlns="http://www.w3.org/2000/svg">
<g clip-path="url(#clip0_33_1281)">
<path d="M12.6667 2.66687H3.33333C2.4496 2.66793 1.60237 3.01946 0.97748 3.64435C0.352588 4.26924 0.00105857 5.11647 0 6.0002L0 10.0002C0.00105857 10.8839 0.352588 11.7312 0.97748 12.3561C1.60237 12.9809 2.4496 13.3325 3.33333 13.3335H12.6667C13.5504 13.3325 14.3976 12.9809 15.0225 12.3561C15.6474 11.7312 15.9989 10.8839 16 10.0002V6.0002C15.9989 5.11647 15.6474 4.26924 15.0225 3.64435C14.3976 3.01946 13.5504 2.66793 12.6667 2.66687ZM2.66667 11.3335C2.53481 11.3335 2.40592 11.2944 2.29629 11.2212C2.18665 11.1479 2.10121 11.0438 2.05075 10.922C2.00029 10.8002 1.98709 10.6661 2.01281 10.5368C2.03853 10.4075 2.10203 10.2887 2.19526 10.1955C2.2885 10.1022 2.40729 10.0387 2.53661 10.013C2.66593 9.98729 2.79997 10.0005 2.92179 10.051C3.04361 10.1014 3.14773 10.1869 3.22098 10.2965C3.29423 10.4061 3.33333 10.535 3.33333 10.6669C3.33333 10.8437 3.2631 11.0133 3.13807 11.1383C3.01305 11.2633 2.84348 11.3335 2.66667 11.3335ZM2.66667 6.0002C2.53481 6.0002 2.40592 5.9611 2.29629 5.88785C2.18665 5.8146 2.10121 5.71048 2.05075 5.58866C2.00029 5.46684 1.98709 5.3328 2.01281 5.20348C2.03853 5.07416 2.10203 4.95537 2.19526 4.86213C2.2885 4.7689 2.40729 4.7054 2.53661 4.67968C2.66593 4.65396 2.79997 4.66716 2.92179 4.71762C3.04361 4.76808 3.14773 4.85352 3.22098 4.96316C3.29423 5.07279 3.33333 5.20168 3.33333 5.33354C3.33333 5.51035 3.2631 5.67992 3.13807 5.80494C3.01305 5.92997 2.84348 6.0002 2.66667 6.0002ZM8 10.6669C7.47258 10.6669 6.95701 10.5105 6.51848 10.2175C6.07995 9.92444 5.73815 9.50796 5.53632 9.02069C5.33449 8.53342 5.28168 7.99725 5.38457 7.47996C5.48747 6.96268 5.74144 6.48753 6.11438 6.11459C6.48732 5.74165 6.96248 5.48767 7.47976 5.38478C7.99704 5.28188 8.53322 5.33469 9.02049 5.53652C9.50776 5.73836 9.92424 6.08015 10.2173 6.51868C10.5103 6.95721 10.6667 7.47279 10.6667 8.0002C10.6667 8.70745 10.3857 9.38573 9.88562 9.88582C9.38552 10.3859 8.70724 10.6669 8 10.6669ZM13.3333 11.3335C13.2015 11.3335 13.0726 11.2944 12.963 11.2212C12.8533 11.1479 12.7679 11.0438 12.7174 10.922C12.667 10.8002 12.6538 10.6661 12.6795 10.5368C12.7052 10.4075 12.7687 10.2887 12.8619 10.1955C12.9552 10.1022 13.074 10.0387 13.2033 10.013C13.3326 9.98729 13.4666 10.0005 13.5885 10.051C13.7103 10.1014 13.8144 10.1869 13.8876 10.2965C13.9609 10.4061 14 10.535 14 10.6669C14 10.8437 13.9298 11.0133 13.8047 11.1383C13.6797 11.2633 13.5101 11.3335 13.3333 11.3335ZM13.3333 6.0002C13.2015 6.0002 13.0726 5.9611 12.963 5.88785C12.8533 5.8146 12.7679 5.71048 12.7174 5.58866C12.667 5.46684 12.6538 5.3328 12.6795 5.20348C12.7052 5.07416 12.7687 4.95537 12.8619 4.86213C12.9552 4.7689 13.074 4.7054 13.2033 4.67968C13.3326 4.65396 13.4666 4.66716 13.5885 4.71762C13.7103 4.76808 13.8144 4.85352 13.8876 4.96316C13.9609 5.07279 14 5.20168 14 5.33354C14 5.51035 13.9298 5.67992 13.8047 5.80494C13.6797 5.92997 13.5101 6.0002 13.3333 6.0002ZM9.33333 8.0002C9.33333 8.26391 9.25513 8.5217 9.10863 8.74096C8.96212 8.96023 8.75388 9.13113 8.51024 9.23204C8.26661 9.33296 7.99852 9.35936 7.73988 9.30792C7.48124 9.25647 7.24366 9.12948 7.05719 8.94301C6.87072 8.75654 6.74373 8.51897 6.69229 8.26032C6.64084 8.00168 6.66724 7.73359 6.76816 7.48996C6.86908 7.24632 7.03997 7.03809 7.25924 6.89158C7.47851 6.74507 7.73629 6.66687 8 6.66687C8.35362 6.66687 8.69276 6.80735 8.94281 7.05739C9.19286 7.30744 9.33333 7.64658 9.33333 8.0002Z" fill="#3250FF"/>
</g>
<defs>
<clipPath id="clip0_33_1281">
<rect width="16" height="16" fill="white"/>
</clipPath>
</defs>
</svg>
